<svg width="40" height="40" viewBox="0 0 40 40" fill="none" xmlns="http://www.w3.org/2000/svg">
    <path d="M17.1748 27.3318C17.2956 27.5385 17.4548 27.707 17.6393 27.8232C17.8238 27.9394 18.0282 28 18.2356 28C18.4429 28 18.6473 27.9394 18.8318 27.8232C19.0163 27.707 19.1755 27.5385 19.2963 27.3318L27.9379 12.639C28.0939 12.3724 27.9379 12 27.6712 12H25.7467C25.3282 12 24.9302 12.2466 24.684 12.6692L18.2376 23.6385L15.316 18.6671C15.0698 18.2495 14.6759 17.9979 14.2533 17.9979H12.3288C12.0621 17.9979 11.9061 18.3702 12.0621 18.6369L17.1748 27.3318Z" fill="#D09600"/>
    <path d="M34.72 4H5.28C4.572 4 4 4.572 4 5.28V34.72C4 35.428 4.572 36 5.28 36H34.72C35.428 36 36 35.428 36 34.72V5.28C36 4.572 35.428 4 34.72 4ZM33.12 33.12H6.88V6.88H33.12V33.12Z" fill="#D09600"/>
</svg>