<svg width="48" height="42" viewBox="0 0 38 42" fill="none" xmlns="http://www.w3.org/2000/svg">
<path d="M17.261 1.19822C17.2684 0.49174 17.9784 -0.10184 18.68 0.0146905C19.3376 0.0523205 19.8585 0.688391 19.817 1.33417C19.817 2.85273 19.8183 4.37007 19.8158 5.88862C21.253 6.26007 22.5487 7.19839 23.2673 8.50209C24.2177 10.1372 24.2031 12.2724 23.2197 13.8893C22.9867 14.325 22.6024 14.6504 22.3328 15.0594C24.0555 18.0844 25.8672 21.0632 27.6107 24.0785C27.6558 24.0773 27.7485 24.0773 27.7949 24.0761C28.4793 23.5723 29.1516 23.0443 29.7519 22.4422C30.1081 22.0465 30.712 21.8705 31.2086 22.1023C31.9687 22.3669 32.2688 23.4546 31.721 24.053C30.9158 24.9379 29.9556 25.6638 28.9893 26.3654C29.1613 26.726 29.3651 27.0707 29.5725 27.4118C32.0004 31.5378 34.4271 35.6649 36.8513 39.7933C37.177 40.2813 37.1221 40.9683 36.6939 41.3774C36.1595 41.9831 35.0651 41.8472 34.6881 41.1371C32.0358 36.6676 29.4395 32.1629 26.7701 27.7043C26.4858 27.7602 26.2332 27.9107 25.9697 28.0212C24.0262 28.8721 21.9338 29.3771 19.817 29.5312C19.8024 30.1163 19.9366 30.8167 19.4754 31.2756C19.0045 31.8218 18.0699 31.8339 17.6002 31.2804C17.1305 30.8228 17.2696 30.1163 17.2525 29.5288C15.4773 29.4074 13.7217 29.025 12.0539 28.4096C11.4475 28.1911 10.8729 27.8937 10.2641 27.6801C9.0074 29.9391 7.64954 32.1435 6.35751 34.3843C5.02767 36.6348 3.70758 38.8902 2.38139 41.1419C2.11298 41.6226 1.50052 41.8617 0.97102 41.727C0.29268 41.5595 -0.186799 40.7826 0.0706297 40.1113C0.28902 39.5967 0.61233 39.1354 0.88928 38.6523C3.10976 34.8783 5.32414 31.1008 7.54584 27.328C7.7386 27.0136 7.92039 26.692 8.08266 26.3618C7.11272 25.665 6.15499 24.9355 5.34854 24.0518C5.01547 23.6694 4.98863 23.0758 5.24239 22.6461C5.58157 21.9894 6.55272 21.7867 7.1237 22.2686C7.84719 22.929 8.55603 23.6354 9.4113 24.1271C11.2133 21.1179 12.9738 18.0808 14.7539 15.057C13.9206 14.1939 13.302 13.099 13.1458 11.9021C12.8457 9.9357 13.7668 7.85145 15.4139 6.72862C15.9654 6.33168 16.5998 6.0707 17.2537 5.89226C17.2537 4.32758 17.233 2.76168 17.261 1.19822ZM18.1017 8.33579C17.2684 8.45839 16.4961 8.96822 16.0752 9.6965C15.6213 10.4479 15.553 11.4105 15.8824 12.2226C16.3009 13.269 17.394 14.0216 18.5348 13.9864C19.878 14.0373 21.1347 12.9716 21.347 11.6606C21.5397 10.6531 21.1347 9.5557 20.3185 8.92452C19.7085 8.42804 18.8788 8.21197 18.1017 8.33579ZM16.2569 17.5406C14.9198 19.8105 13.5899 22.0829 12.2503 24.3516C12.0295 24.7146 11.8038 25.0787 11.6598 25.4805C13.4179 26.2841 15.309 26.8376 17.2464 26.953C17.2598 26.4189 17.1756 25.8083 17.5453 25.3664C18.0211 24.7595 19.0508 24.7583 19.5242 25.3664C19.8988 25.8095 19.8109 26.4213 19.8195 26.9566C21.7593 26.8389 23.6504 26.2805 25.4122 25.4817C25.2304 24.9962 24.9388 24.5641 24.6801 24.1186C23.16 21.5367 21.6434 18.9511 20.122 16.3692C19.1009 16.5804 18.0224 16.6593 17.0158 16.3279C16.723 16.7067 16.4936 17.1267 16.2569 17.5406Z" fill="#D09600"/>
</svg>
