<svg width="48" height="48" viewBox="0 0 48 48" fill="none" xmlns="http://www.w3.org/2000/svg">
<path d="M31.7344 21.0469C31.7344 20.1408 30.9999 19.4062 30.0938 19.4062H13.1953C12.2892 19.4062 11.5547 20.1408 11.5547 21.0469C11.5547 21.953 12.2892 22.6875 13.1953 22.6875H30.0938C30.9999 22.6875 31.7344 21.953 31.7344 21.0469Z" fill="#D09600"/>
<path d="M13.1953 25.9688C12.2892 25.9688 11.5547 26.7033 11.5547 27.6094C11.5547 28.5155 12.2892 29.25 13.1953 29.25H23.4583C24.3644 29.25 25.0989 28.5155 25.0989 27.6094C25.0989 26.7033 24.3644 25.9688 23.4583 25.9688H13.1953Z" fill="#D09600"/>
<path d="M17.0495 41.7188H11.5625C9.75322 41.7188 8.28125 40.2468 8.28125 38.4375V9.5625C8.28125 7.75322 9.75322 6.28125 11.5625 6.28125H31.7331C33.5424 6.28125 35.0143 7.75322 35.0143 9.5625V19.6523C35.0143 20.5585 35.7488 21.293 36.655 21.293C37.5611 21.293 38.2956 20.5585 38.2956 19.6523V9.5625C38.2956 5.94394 35.3516 3 31.7331 3H11.5625C7.94394 3 5 5.94394 5 9.5625V38.4375C5 42.0561 7.94394 45 11.5625 45H17.0495C17.9556 45 18.6901 44.2655 18.6901 43.3594C18.6901 42.4533 17.9556 41.7188 17.0495 41.7188Z" fill="#D09600"/>
<path d="M41.203 26.7539C39.284 24.8349 36.1615 24.8348 34.2437 26.7526L25.2364 35.74C25.0451 35.9308 24.904 36.1659 24.8255 36.4245L22.8638 42.8824C22.6899 43.455 22.8414 44.0767 23.2593 44.505C23.5723 44.8258 23.9976 45 24.4338 45C24.5797 45 24.727 44.9804 24.8716 44.9403L31.4936 43.106C31.7661 43.0306 32.0145 42.8859 32.2147 42.6861L41.2031 33.7146C43.1221 31.7956 43.1221 28.6731 41.203 26.7539ZM30.2019 40.0591L26.8705 40.9819L27.8454 37.7721L33.923 31.708L36.2437 34.0286L30.2019 40.0591ZM38.884 31.3934L38.5662 31.7107L36.2459 29.3904L36.5627 29.0743C37.2024 28.4346 38.2432 28.4346 38.8829 29.0743C39.5226 29.7139 39.5226 30.7548 38.884 31.3934Z" fill="#D09600"/>
<path d="M30.0938 12.8438H13.1953C12.2892 12.8438 11.5547 13.5783 11.5547 14.4844C11.5547 15.3905 12.2892 16.125 13.1953 16.125H30.0938C30.9999 16.125 31.7344 15.3905 31.7344 14.4844C31.7344 13.5783 30.9999 12.8438 30.0938 12.8438Z" fill="#D09600"/>
</svg>
