<svg width="48" height="48" viewBox="0 0 48 48" fill="none" xmlns="http://www.w3.org/2000/svg">
<path d="M23.1657 2.8472V2.84785L23.2215 11.4449H22.4185C21.9441 11.4449 21.4611 11.6226 21.1556 11.9891C20.8671 12.3353 20.6242 12.7531 20.6242 13.2392V15.1352C17.1939 15.8814 14.2112 17.5211 11.8993 19.8329C8.77461 22.9576 6.8999 27.2188 6.8999 31.99C6.8999 32.5579 7.34446 32.9372 7.84708 32.9372H16.7969C17.0371 34.5596 17.7194 36.0171 18.8461 37.1438C20.1636 38.4612 21.9962 39.2628 23.9999 39.2628C26.0036 39.2628 27.8362 38.4612 29.1537 37.1438C30.2804 36.0171 30.9627 34.5596 31.2029 32.9372H40.1527C40.7206 32.9372 41.0999 32.4927 41.0999 31.99C41.0999 27.275 39.1686 22.9581 36.1018 19.8342C33.9028 17.5227 30.9775 15.8829 27.7145 15.1912V13.2392C27.7145 12.7648 27.5368 12.2818 27.1702 11.9763C26.824 11.6878 26.4063 11.4449 25.9202 11.4449H25.1159L25.06 2.8472H24.96L25.06 2.84655V2.84683C25.0598 2.27917 24.6154 1.90002 24.1129 1.90002C23.545 1.90002 23.1657 2.34458 23.1657 2.8472ZM27.8287 35.7575L27.8286 35.7574L27.8262 35.7599C26.8284 36.7576 25.4984 37.312 24.0564 37.312C22.5592 37.312 21.2288 36.7021 20.2866 35.7599C19.535 35.0083 18.9926 34.0508 18.8076 32.9372H24.0564H29.3552C29.1212 34.0067 28.6276 35.0119 27.8287 35.7575ZM34.773 21.2169C37.3308 23.7746 38.9515 27.1581 39.1992 30.9864H30.382H24.0564H17.7308H8.85705C9.10479 27.1565 10.7259 23.7187 13.2825 21.2177L13.2832 21.2169C15.6389 18.8613 18.7226 17.291 22.1986 16.8973C22.2638 16.8964 22.3398 16.8812 22.4039 16.8684L22.4099 16.8672C22.4838 16.8524 22.5435 16.8409 22.5879 16.8409V16.8416L22.6003 16.8401C23.0449 16.7845 23.5467 16.7844 23.9999 16.7844C24.5088 16.7844 24.9553 16.7845 25.4573 16.8403L25.4572 16.8409H25.4683C25.5127 16.8409 25.5724 16.8524 25.6464 16.8672L25.6524 16.8684C25.7165 16.8812 25.7925 16.8964 25.8577 16.8973C29.3337 17.291 32.4174 18.8613 34.773 21.2169ZM25.7637 13.3957V14.89H25.7636H25.7633H25.763H25.7627H25.7624H25.7621H25.7618H25.7616H25.7613H25.761H25.7607H25.7604H25.7601H25.7598H25.7595H25.7592H25.7589H25.7586H25.7583H25.758H25.7577H25.7574H25.7571H25.7568H25.7565H25.7562H25.7559H25.7556H25.7552H25.7549H25.7546H25.7543H25.754H25.7537H25.7533H25.753H25.7527H25.7524H25.752H25.7517H25.7514H25.7511H25.7507H25.7501H25.7494H25.7488H25.7481H25.7474H25.7468H25.7461H25.7455H25.7448H25.7442H25.7435H25.7429H25.7422H25.7416H25.7409H25.7403H25.7397H25.739H25.7384H25.7377H25.7371H25.7365H25.7358H25.7352H25.7346H25.7339H25.7333H25.7327H25.7321H25.7314H25.7308H25.7302H25.7296H25.7289H25.7283H25.7277H25.7271H25.7265H25.7259H25.7252H25.7246H25.724H25.7234H25.7228H25.7222H25.7216H25.721H25.7204H25.7198H25.7192H25.7185H25.7179H25.7173H25.7167H25.7161H25.7155H25.715H25.7144H25.7138H25.7132H25.7126H25.712H25.7114H25.7108H25.7102H25.7096H25.709H25.7085H25.7079H25.7073H25.7067H25.7061H25.7055H25.705H25.7044H25.7038H25.7032H25.7026H25.7021H25.7015H25.7009H25.7003H25.6998H25.6992H25.6986H25.6981H25.6975H25.6969H25.6964H25.6958H25.6952H25.6947H25.6941H25.6935H25.693H25.6924H25.6918H25.6913H25.6907H25.6902H25.6896H25.6891H25.6885H25.6879H25.6874H25.6868H25.6863H25.6857H25.6852H25.6846H25.6841H25.6835H25.683H25.6824H25.6819H25.6813H25.6808H25.6803H25.6797H25.6792H25.6786H25.6781H25.6775H25.677H25.6765H25.6759H25.6754H25.6748H25.6743H25.6738H25.6732H25.6727H25.6722H25.6716H25.6711H25.6706H25.67H25.6695H25.669H25.6684H25.6679H25.6674H25.6668H25.6663H25.6658H25.6653H25.6647H25.6642H25.6637H25.6632H25.6626H25.6621H25.6616H25.6611H25.6605H25.66H25.6595H25.659H25.6585H25.6579H25.6574H25.6569H25.6564H25.6559H25.6553H25.6548H25.6543H25.6538H25.6533H25.6528H25.6522H25.6517H25.6512H25.6507H25.6502H25.6497H25.6492H25.6487H25.6481H25.6476H25.6471H25.6466H25.6461H25.6456H25.6451H25.6446H25.6441H25.6436H25.643H25.6425H25.642H25.6415H25.641H25.6405H25.64H25.6395H25.639H25.6385H25.638H25.6375H25.637H25.6365H25.636H25.6355H25.635H25.6345H25.634H25.6335H25.633H25.6325H25.632H25.6314H25.6309H25.6304H25.6299H25.6294H25.6289H25.6284H25.6279H25.6274H25.6269H25.6264H25.6259H25.6254H25.6249H25.6245H25.624H25.6235H25.623H25.6225H25.622H25.6215H25.621H25.6205H25.62H25.6195H25.619H25.6185H25.618H25.6175H25.617H25.6165H25.616H25.6155H25.615H25.6145H25.614H25.6135H25.613H25.6125H25.612H25.6115H25.611H25.6105H25.61H25.6095H25.609H25.6085H25.608H25.6076H25.6071H25.6066H25.6061H25.6056H25.6051H25.6046H25.6041H25.6036H25.6031H25.6026H25.6021H25.6016H25.6011H25.6006H25.6001H25.5996H25.5991H25.5986H25.5981H25.5976H25.5971H25.5966H25.5961H25.5956H25.5951H25.5946H25.5941H25.5936H25.5931H25.5926H25.5921H25.5916H25.5911H25.5906H25.5901H25.5896H25.5891H25.5886H25.5881H25.5876H25.5871H25.5866H25.5861H25.5856H25.5851H25.5846H25.5841H25.5836H25.5831H25.5826H25.5821H25.5816H25.5811H25.5806H25.5801H25.5796H25.5791H25.5786H25.5781H25.5775H25.577H25.5765H25.576H25.5755H25.575H25.5745H25.574H25.5735H25.573H25.5725H25.572H25.5714H25.5709H25.5704H25.5699H25.5694H25.5689H25.5684H25.5679H25.5673H25.5668H25.5663H25.5658H25.5653H25.5648H25.5642H25.5637H25.5632H25.5627H25.5622H25.5617H25.5611H25.5606H25.5601H25.5596H25.5591H25.5585H25.558H25.5575H25.557H25.5564H25.5559H25.5554H25.5549H25.5543H25.5538H25.5533H25.5528H25.5522H25.5517H25.5512H25.5506H25.5501H25.5496H25.549H25.5485H25.548H25.5474H25.5469H25.5464H25.5458H25.5453H25.5448H25.5442H25.5437H25.5432H25.5426H25.5421H25.5415H25.541H25.5405H25.5399H25.5394H25.5388H25.5383H25.5377H25.5372H25.5366H25.5361H25.5355H25.535H25.5344H25.5339H25.5333H25.5328H25.5322H25.5317H25.5311H25.5306H25.53H25.5295H25.5289H25.5283H25.5278H25.5272H25.5267H25.5261H25.5255H25.525H25.5244H25.5239H25.5233H25.5227H25.5222H25.5216H25.521H25.5204H25.5199H25.5193H25.5187H25.5182H25.5176H25.517H25.5164H25.5159H25.5153H25.5147H25.5141H25.5135H25.513H25.5124H25.5118H25.5112H25.5106H25.51H25.5095H25.5089H25.5083H25.5077H25.5071H25.5065H25.5059H25.5053H25.5047H25.5041H25.5035H25.5029H25.5023H25.5017H25.5011H25.5005H25.4999H25.4993H25.4987H25.4981H25.4975H25.4969H25.4963H25.4957H25.4951H25.4944H25.4938H25.4932H25.4926H25.492H25.4914H25.4908H25.4901H25.4895H25.4889H25.4883H25.4876H25.487H25.4864H25.4858H25.4851H25.4845H25.4839H25.4832H25.4826H25.482H25.4813H25.4807H25.4801H25.4794H25.4788H25.4781H25.4775H25.4768H25.4762H25.4755H25.4749H25.4745C25.0191 14.8337 24.5095 14.8336 24.0625 14.8336C23.831 14.8051 23.601 14.8054 23.3755 14.8124C23.2979 14.8149 23.2215 14.818 23.1457 14.8212C22.9964 14.8274 22.8495 14.8336 22.7009 14.8336H22.6941C22.6246 14.8335 22.5452 14.8335 22.462 14.8508V13.3957H25.7637Z" fill="#D09600" stroke="#D09600" stroke-width="0.2"/>
<path d="M24.058 40.2501C23.4901 40.2501 23.1108 40.6947 23.1108 41.1973V45.885C23.1108 46.4529 23.5554 46.8322 24.058 46.8322C24.6259 46.8322 25.0052 46.3876 25.0052 45.885V41.1973C25.0052 40.9204 24.9124 40.6819 24.7429 40.5124C24.5734 40.3429 24.3349 40.2501 24.058 40.2501Z" fill="#D09600" stroke="#D09600" stroke-width="0.2"/>
<path d="M31.8819 43.5201L31.8815 43.5193L29.5098 39.4536C29.5097 39.4535 29.5097 39.4534 29.5096 39.4532C29.2577 39.0129 28.6331 38.8228 28.1873 39.0775C27.7467 39.3293 27.5564 39.9541 27.8112 40.4L27.8117 40.4008L30.1833 44.4665C30.1834 44.4666 30.1835 44.4668 30.1836 44.4669C30.4355 44.9072 31.06 45.0973 31.5058 44.8425C31.9464 44.5908 32.1367 43.966 31.8819 43.5201Z" fill="#D09600" stroke="#D09600" stroke-width="0.2"/>
<path d="M32.5214 35.7448L32.5206 35.7444C32.0832 35.4944 31.4526 35.6147 31.1967 36.1229C30.9487 36.56 31.0693 37.1885 31.5761 37.4441L35.6399 39.8147L35.6406 39.815C36.078 40.0649 36.7086 39.9447 36.9645 39.4365C37.2125 38.9994 37.0919 38.3709 36.5851 38.1153L32.5214 35.7448Z" fill="#D09600" stroke="#D09600" stroke-width="0.2"/>
<path d="M15.5975 35.7435L15.5968 35.7439L11.5311 38.1156C11.531 38.1156 11.5308 38.1157 11.5307 38.1158C11.0904 38.3677 10.9002 38.9922 11.155 39.4381C11.4068 39.8787 12.0315 40.069 12.4775 39.8141L12.4783 39.8137L16.5447 37.4416L16.5449 37.442L16.5524 37.4366C16.978 37.1326 17.1778 36.5708 16.92 36.1196C16.6682 35.679 16.0435 35.4887 15.5975 35.7435Z" fill="#D09600" stroke="#D09600" stroke-width="0.2"/>
<path d="M16.2298 43.5192L16.2294 43.52C15.9794 43.9574 16.0997 44.5879 16.6079 44.8439C17.045 45.0919 17.6735 44.9713 17.9291 44.4645L20.2996 40.4007L20.3 40.4C20.5499 39.9626 20.4296 39.332 19.9215 39.0761C19.4759 38.8234 18.8531 39.0136 18.6017 39.4532C18.6016 39.4533 18.6015 39.4534 18.6014 39.4536L16.2298 43.5192Z" fill="#D09600" stroke="#D09600" stroke-width="0.2"/>
</svg>
