<svg width="74" height="36" viewBox="0 0 74 36" fill="none" xmlns="http://www.w3.org/2000/svg">
<path d="M4 12.0927H8.31158C9.43108 12.0927 10.4195 12.3244 11.2767 12.7879C12.134 13.2411 12.7997 13.8797 13.2737 14.7037C13.7477 15.5173 13.9847 16.4494 13.9847 17.5C13.9847 18.5506 13.7477 19.4878 13.2737 20.3118C12.7997 21.1255 12.134 21.764 11.2767 22.2275C10.4195 22.6807 9.43108 22.9073 8.31158 22.9073H4V12.0927ZM8.25107 21.9185C9.17894 21.9185 9.99083 21.7331 10.6867 21.3624C11.3826 20.9813 11.9222 20.4611 12.3055 19.802C12.6887 19.1325 12.8803 18.3652 12.8803 17.5C12.8803 16.6348 12.6887 15.8727 12.3055 15.2135C11.9222 14.544 11.3826 14.0239 10.6867 13.6531C9.99083 13.272 9.17894 13.0815 8.25107 13.0815H5.1195V21.9185H8.25107Z" fill="#2F2F2F"/>
<path d="M24.3654 21.6713C23.9317 22.0936 23.3518 22.4232 22.6256 22.6601C21.9095 22.8867 21.1128 23 20.2353 23C19.3075 23 18.5157 22.8713 17.8602 22.6138C17.2147 22.3563 16.7255 22.0009 16.3927 21.5478C16.07 21.0946 15.9086 20.5744 15.9086 19.9874C15.9086 19.3385 16.0952 18.7875 16.4684 18.3343C16.8516 17.8811 17.3509 17.5669 17.9661 17.3919C17.4618 17.1962 17.0685 16.8872 16.7861 16.4649C16.5037 16.0323 16.3625 15.5276 16.3625 14.9508C16.3625 14.405 16.5137 13.9106 16.8163 13.4677C17.129 13.0145 17.5929 12.6592 18.2081 12.4017C18.8334 12.1339 19.5848 12 20.4622 12C21.1077 12 21.733 12.0772 22.3382 12.2317C22.9534 12.3759 23.4778 12.5871 23.9115 12.8652L23.5636 13.7767C22.6357 13.2411 21.617 12.9733 20.5076 12.9733C19.5293 12.9733 18.778 13.1639 18.2535 13.5449C17.7391 13.926 17.482 14.4204 17.482 15.0281C17.482 15.6358 17.6887 16.1044 18.1022 16.434C18.5258 16.7636 19.1209 16.9284 19.8874 16.9284H22.5197V17.9171H19.842C18.9746 17.9171 18.2888 18.0871 17.7845 18.427C17.2803 18.7566 17.0281 19.2509 17.0281 19.9101C17.0281 20.559 17.3004 21.074 17.845 21.4551C18.3998 21.8361 19.2116 22.0267 20.2807 22.0267C21.027 22.0267 21.7229 21.9185 22.3684 21.7022C23.0139 21.486 23.5383 21.1873 23.9418 20.8062L24.3654 21.6713Z" fill="#2F2F2F"/>
<path d="M29.6117 23C28.825 23 28.0686 22.8713 27.3425 22.6138C26.6264 22.3563 26.0717 22.0164 25.6783 21.5941L26.1171 20.7135C26.5003 21.1049 27.0096 21.4242 27.645 21.6713C28.2804 21.9082 28.936 22.0267 29.6117 22.0267C30.5598 22.0267 31.2708 21.8516 31.7448 21.5014C32.2188 21.1409 32.4558 20.6774 32.4558 20.111C32.4558 19.6784 32.3247 19.3333 32.0625 19.0758C31.8104 18.8184 31.4977 18.6227 31.1245 18.4888C30.7514 18.3446 30.232 18.1901 29.5663 18.0253C28.7696 17.8193 28.1342 17.6236 27.6602 17.4382C27.1861 17.2425 26.7777 16.949 26.4348 16.5576C26.1019 16.1662 25.9355 15.6358 25.9355 14.9663C25.9355 14.4204 26.0767 13.926 26.3591 13.4831C26.6415 13.03 27.0752 12.6695 27.6602 12.4017C28.2451 12.1339 28.9713 12 29.8386 12C30.4438 12 31.0338 12.0875 31.6087 12.2626C32.1936 12.4274 32.6979 12.6592 33.1215 12.9579L32.7433 13.8694C32.2995 13.5707 31.8255 13.3493 31.3212 13.2051C30.8169 13.0506 30.3227 12.9733 29.8386 12.9733C28.9108 12.9733 28.2098 13.1587 27.7358 13.5295C27.2719 13.89 27.0399 14.3586 27.0399 14.9354C27.0399 15.368 27.166 15.7182 27.4181 15.986C27.6803 16.2434 28.0031 16.4443 28.3863 16.5885C28.7797 16.7224 29.3041 16.8717 29.9597 17.0365C30.7363 17.2322 31.3616 17.4279 31.8356 17.6236C32.3197 17.809 32.7282 18.0974 33.061 18.4888C33.3938 18.8699 33.5602 19.39 33.5602 20.0492C33.5602 20.595 33.414 21.0946 33.1215 21.5478C32.8391 21.9906 32.4004 22.346 31.8053 22.6138C31.2103 22.8713 30.4791 23 29.6117 23Z" fill="#2F2F2F"/>
<path d="M38.4956 13.0815V21.9185H40.6438V22.9073H35.243V21.9185H37.3912V13.0815H35.243V12.0927H40.6438V13.0815H38.4956Z" fill="#2F2F2F"/>
<path d="M50.7258 17.5H51.7999V22.9073H50.8166V21.9958C50.4132 22.3254 49.9391 22.5777 49.3945 22.7528C48.86 22.9176 48.2851 23 47.6699 23C46.7218 23 45.8394 22.7837 45.0224 22.3511C44.2156 21.9185 43.5651 21.2903 43.0709 20.4663C42.5767 19.6423 42.3296 18.6639 42.3296 17.5309C42.3296 16.4803 42.5716 15.5379 43.0557 14.7037C43.5398 13.8591 44.2055 13.1999 45.0527 12.7261C45.8999 12.242 46.858 12 47.9271 12C48.7339 12 49.4752 12.1339 50.1509 12.4017C50.8267 12.6592 51.3965 13.0454 51.8604 13.5604L51.1645 14.2865C50.3274 13.4419 49.2634 13.0197 47.9725 13.0197C47.1152 13.0197 46.3386 13.2154 45.6427 13.6067C44.9569 13.9878 44.4173 14.5234 44.024 15.2135C43.6306 15.9036 43.4339 16.676 43.4339 17.5309C43.4339 18.4476 43.6306 19.2458 44.024 19.9256C44.4274 20.595 44.9569 21.11 45.6124 21.4705C46.2781 21.8207 46.9891 21.9958 47.7455 21.9958C48.3002 21.9958 48.8348 21.9031 49.3491 21.7177C49.8736 21.522 50.3325 21.2285 50.7258 20.8371V17.5Z" fill="#2F2F2F"/>
<path d="M59.9305 12C61.2013 12 62.1947 12.3862 62.9108 13.1587C63.6369 13.9312 64 15.0332 64 16.4649V22.9073H62.8805V16.4958C62.8805 15.3525 62.6031 14.4874 62.0484 13.9003C61.4937 13.3132 60.7171 13.0197 59.7187 13.0197C58.6698 13.0197 57.8528 13.3338 57.2679 13.9621C56.6829 14.5801 56.3904 15.5122 56.3904 16.7584V22.9073H55.2709V12.0927H56.3451V13.9157C57.0208 12.6386 58.2159 12 59.9305 12Z" fill="#2F2F2F"/>
<path d="M51.0753 32.6121C50.9237 32.7379 50.736 32.8357 50.5122 32.9056C50.2884 32.9685 50.0574 33 49.8192 33C49.2417 33 48.7941 32.8497 48.4764 32.5491C48.1588 32.2486 48 31.8187 48 31.2595V26.1638H49.0395V27.3801H50.6854V28.2084H49.0395V31.2176C49.0395 31.5181 49.1153 31.7488 49.2669 31.9096C49.4257 32.0703 49.6495 32.1507 49.9383 32.1507C50.2559 32.1507 50.5266 32.0633 50.7504 31.8886L51.0753 32.6121Z" fill="#D09600"/>
<path d="M52.3263 27.3801H53.3658V32.9371H52.3263V27.3801ZM52.846 26.3106C52.6439 26.3106 52.4743 26.2477 52.3371 26.1219C52.2072 25.9961 52.1422 25.8423 52.1422 25.6606C52.1422 25.4788 52.2072 25.325 52.3371 25.1992C52.4743 25.0664 52.6439 25 52.846 25C53.0482 25 53.2142 25.0629 53.3441 25.1887C53.4813 25.3076 53.5499 25.4578 53.5499 25.6396C53.5499 25.8283 53.4813 25.9891 53.3441 26.1219C53.2142 26.2477 53.0482 26.3106 52.846 26.3106Z" fill="#D09600"/>
<path d="M62.5298 27.3277C63.2517 27.3277 63.822 27.5304 64.2407 27.9358C64.6666 28.3412 64.8796 28.9423 64.8796 29.7392V32.9371H63.8401V29.8545C63.8401 29.3163 63.7101 28.9109 63.4502 28.6383C63.1976 28.3657 62.833 28.2294 62.3566 28.2294C61.8296 28.2294 61.4109 28.3901 61.1005 28.7117C60.7901 29.0262 60.6349 29.4806 60.6349 30.0747V32.9371H59.5953V29.8545C59.5953 29.3163 59.4654 28.9109 59.2055 28.6383C58.9528 28.3657 58.5883 28.2294 58.1118 28.2294C57.5849 28.2294 57.1662 28.3901 56.8558 28.7117C56.5453 29.0262 56.3901 29.4806 56.3901 30.0747V32.9371H55.3506V27.3801H56.3468V28.2084C56.5562 27.9218 56.8305 27.7051 57.1698 27.5583C57.5091 27.4045 57.8953 27.3277 58.3284 27.3277C58.776 27.3277 59.173 27.415 59.5195 27.5898C59.866 27.7645 60.1331 28.0197 60.3208 28.3552C60.5374 28.0336 60.837 27.782 61.2196 27.6003C61.6094 27.4185 62.0462 27.3277 62.5298 27.3277Z" fill="#D09600"/>
<path d="M69.412 32.1193C70.0978 32.1193 70.6501 31.8956 71.0688 31.4482L71.6318 32.0983C71.3792 32.3919 71.0579 32.6156 70.6681 32.7693C70.2855 32.9231 69.856 33 69.3795 33C68.7731 33 68.2353 32.8812 67.7661 32.6435C67.2969 32.3989 66.9323 32.0599 66.6724 31.6265C66.4198 31.1931 66.2934 30.7038 66.2934 30.1586C66.2934 29.6204 66.4162 29.1346 66.6616 28.7012C66.9143 28.2678 67.2572 27.9323 67.6903 27.6946C68.1307 27.45 68.6252 27.3277 69.1738 27.3277C69.6936 27.3277 70.1664 27.443 70.5923 27.6737C71.0182 27.8973 71.3575 28.2154 71.6102 28.6278C71.8628 29.0402 71.9928 29.5155 72 30.0537L67.4413 30.9135C67.5856 31.2979 67.8275 31.595 68.1668 31.8047C68.5133 32.0144 68.9283 32.1193 69.412 32.1193ZM69.1738 28.1769C68.8128 28.1769 68.488 28.2573 68.1992 28.4181C67.9177 28.5789 67.6975 28.806 67.5387 29.0996C67.3799 29.3862 67.3005 29.7217 67.3005 30.1062V30.211L70.9713 29.54C70.8775 29.1346 70.6681 28.806 70.3433 28.5544C70.0184 28.3028 69.6286 28.1769 69.1738 28.1769Z" fill="#D09600"/>
<path d="M4 23H5V31H4V23Z" fill="#2F2F2F"/>
<path d="M71 5H72V27H71V5Z" fill="#2F2F2F"/>
<path d="M4 4H5V12H4V4Z" fill="#2F2F2F"/>
<path d="M5 30H46V31H5V30Z" fill="#2F2F2F"/>
<path d="M5 4H72V5H5V4Z" fill="#2F2F2F"/>
</svg>
