<svg width="48" height="48" viewBox="0 0 48 48" fill="none" xmlns="http://www.w3.org/2000/svg">
<path d="M39.2227 7.92188H37.9922V6.69141C37.9922 4.65596 36.3362 3 34.3008 3H9.69141C7.65596 3 6 4.65596 6 6.69141V36.3867C6 38.4222 7.65596 40.0781 9.69141 40.0781H10.9219V41.3086C10.9219 43.344 12.5778 45 14.6133 45H39.2227C41.2581 45 42.9141 43.344 42.9141 41.3086V11.6133C42.9141 9.57784 41.2581 7.92188 39.2227 7.92188ZM12.003 12.4834C11.3058 13.1806 10.9219 14.1075 10.9219 15.0935V37.6172H9.69141C9.01293 37.6172 8.46094 37.0652 8.46094 36.3867V6.69141C8.46094 6.01293 9.01293 5.46094 9.69141 5.46094H34.3008C34.9793 5.46094 35.5312 6.01293 35.5312 6.69141V7.92188H18.0935C17.1075 7.92188 16.1806 8.30586 15.4834 9.00305L12.003 12.4834ZM18.3047 10.3828V15.3047H13.3828V15.0935C13.3828 14.7649 13.5108 14.4559 13.7432 14.2235L17.2235 10.7432C17.4559 10.5108 17.7649 10.3828 18.0935 10.3828H18.3047ZM40.4531 41.3086C40.4531 41.9871 39.9011 42.5391 39.2227 42.5391H14.6133C13.9348 42.5391 13.3828 41.9871 13.3828 41.3086V17.7656H19.5352C20.2147 17.7656 20.7656 17.2147 20.7656 16.5352V10.3828H39.2227C39.9011 10.3828 40.4531 10.9348 40.4531 11.6133V41.3086Z" fill="#D09600"/>
<path d="M36.7617 20.3906H17.0742C16.3947 20.3906 15.8438 20.9415 15.8438 21.6211C15.8438 22.3006 16.3947 22.8516 17.0742 22.8516H36.7617C37.4412 22.8516 37.9921 22.3006 37.9921 21.6211C37.9921 20.9415 37.4412 20.3906 36.7617 20.3906Z" fill="#D09600"/>
<path d="M36.7617 25.3125H17.0742C16.3947 25.3125 15.8438 25.8634 15.8438 26.543C15.8438 27.2225 16.3947 27.7734 17.0742 27.7734H36.7617C37.4412 27.7734 37.9921 27.2225 37.9921 26.543C37.9921 25.8634 37.4412 25.3125 36.7617 25.3125Z" fill="#D09600"/>
<path d="M36.7617 30.2344H17.0742C16.3947 30.2344 15.8438 30.7853 15.8438 31.4648C15.8438 32.1444 16.3947 32.6953 17.0742 32.6953H36.7617C37.4412 32.6953 37.9921 32.1444 37.9921 31.4648C37.9921 30.7853 37.4412 30.2344 36.7617 30.2344Z" fill="#D09600"/>
<path d="M36.7617 35.1562H17.0742C16.3947 35.1562 15.8438 35.7072 15.8438 36.3867C15.8438 37.0663 16.3947 37.6172 17.0742 37.6172H36.7617C37.4412 37.6172 37.9921 37.0663 37.9921 36.3867C37.9921 35.7072 37.4412 35.1562 36.7617 35.1562Z" fill="#D09600"/>
</svg>
