<svg width="48" height="48" viewBox="0 0 48 48" fill="none" xmlns="http://www.w3.org/2000/svg">
<g clip-path="url(#clip0_2_910)">
<path d="M24.0006 15.0005C23.8786 15.0005 23.7566 14.9785 23.6405 14.9345L10.64 9.93428C10.254 9.78627 10 9.41426 10 9.00024C10 8.58622 10.254 8.21421 10.64 8.0662L23.6405 3.066C23.8726 2.978 24.1266 2.978 24.3586 3.066L37.3591 8.0662C37.7471 8.21421 38.0011 8.58622 38.0011 9.00024C38.0011 9.41426 37.7471 9.78627 37.3611 9.93428L24.3606 14.9345C24.2446 14.9785 24.1226 15.0005 24.0006 15.0005ZM13.7862 9.00024L24.0006 12.9284L34.215 9.00024L24.0006 5.07208L13.7862 9.00024Z" fill="#D09600"/>
<path d="M24.0006 31.001C23.8786 31.001 23.7566 30.979 23.6405 30.935L10.64 25.9348C10.254 25.7868 10 25.4148 10 25.0008V9.00016C10 8.44814 10.448 8.00012 11 8.00012C11.5521 8.00012 12.0001 8.44814 12.0001 9.00016V24.3148L24.0006 28.931L36.001 24.3148V9.00016C36.001 8.44814 36.4491 8.00012 37.0011 8.00012C37.5531 8.00012 38.0011 8.44814 38.0011 9.00016V25.0008C38.0011 25.4148 37.7471 25.7868 37.3611 25.9348L24.3606 30.935C24.2446 30.979 24.1226 31.001 24.0006 31.001Z" fill="#D09600"/>
<path d="M24 31.0012C23.448 31.0012 23 30.5532 23 30.0012V14.0005C23 13.4485 23.448 13.0005 24 13.0005C24.5521 13.0005 25.0001 13.4485 25.0001 14.0005V30.0012C25.0001 30.5532 24.5521 31.0012 24 31.0012Z" fill="#D09600"/>
<path d="M21.0004 45.0018C20.6964 45.0018 20.3964 44.8638 20.2004 44.6018C19.8684 44.1598 19.9584 43.5337 20.4004 43.2017L23.3325 41.0016L20.4004 38.8015C19.9584 38.4695 19.8684 37.8435 20.2004 37.4015C20.5324 36.9595 21.1584 36.8715 21.6004 37.2015L25.6006 40.2016C25.8526 40.3896 26.0006 40.6876 26.0006 41.0016C26.0006 41.3156 25.8526 41.6137 25.6006 41.8017L21.6004 44.8018C21.4204 44.9358 21.2104 45.0018 21.0004 45.0018Z" fill="#D09600"/>
<path d="M24.001 42.0015C20.9768 42.0015 18.1147 41.8575 15.4926 41.5755C11.8645 41.2095 0 39.6534 0 35.0012C0 33.1031 1.95808 31.5171 5.81623 30.289C6.45026 30.093 7.13029 30.587 7.13029 31.2431C7.13029 31.7271 6.79427 32.1311 6.33825 32.2231C3.13813 33.2531 2.00008 34.3632 2.00008 35.0012C2.00008 36.3333 6.25025 38.6334 15.7006 39.5854C18.2567 39.8614 21.0468 40.0014 24.001 40.0014C24.553 40.0014 25.001 40.4494 25.001 41.0014C25.001 41.5535 24.553 42.0015 24.001 42.0015Z" fill="#D09600"/>
<path d="M30.9797 41.7016C30.4637 41.7016 30.0257 41.3056 29.9837 40.7836C29.9397 40.2336 30.3497 39.7496 30.8997 39.7056C41.2002 38.8635 46.0003 36.4014 46.0003 35.0014C46.0003 34.3573 44.8423 33.2353 41.5762 32.1953C41.0501 32.0272 40.7601 31.4652 40.9261 30.9392C41.0941 30.4132 41.6542 30.1232 42.1822 30.2892C46.0423 31.5172 48.0004 33.1033 48.0004 35.0014C48.0004 39.9316 35.0359 41.3736 31.0617 41.6996C31.0337 41.7016 31.0057 41.7016 30.9797 41.7016Z" fill="#D09600"/>
</g>
<defs>
<clipPath id="clip0_2_910">
<rect width="48" height="48" fill="white"/>
</clipPath>
</defs>
</svg>
