<svg  xmlns="http://www.w3.org/2000/svg">

    <symbol width="24" height="24" viewBox="0 0 24 24" fill="none" id="telephone">
        <path d="M10.554 6.24003L7.17099 2.33503C6.78099 1.88503 6.06599 1.88703 5.61299 2.34103L2.83099 5.12803C2.00299 5.95703 1.76599 7.18803 2.24499 8.17503C5.10661 14.1 9.88503 18.8851 15.806 21.755C16.792 22.234 18.022 21.997 18.85 21.168L21.658 18.355C22.113 17.9 22.114 17.181 21.66 16.791L17.74 13.426C17.33 13.074 16.693 13.12 16.282 13.532L14.918 14.898C14.8482 14.9712 14.7562 15.0195 14.6563 15.0354C14.5564 15.0513 14.4541 15.0339 14.365 14.986C12.1354 13.7021 10.286 11.8503 9.00499 9.61903C8.95702 9.52978 8.93964 9.42726 8.95554 9.32719C8.97144 9.22711 9.01972 9.13502 9.09299 9.06503L10.453 7.70403C10.865 7.29003 10.91 6.65003 10.554 6.23903V6.24003Z" stroke="#D09600" stroke-width="2" stroke-linecap="round" stroke-linejoin="round"/>
    </symbol>

    <symbol width="22" height="16" viewBox="0 0 22 16" fill="none" id="letter">
        <path d="M20.3333 0H1.66659C1.31296 0 0.973825 0.140476 0.723776 0.390524C0.473728 0.640573 0.333252 0.979711 0.333252 1.33333V14.6667C0.333252 15.0203 0.473728 15.3594 0.723776 15.6095C0.973825 15.8595 1.31296 16 1.66659 16H20.3333C20.6869 16 21.026 15.8595 21.2761 15.6095C21.5261 15.3594 21.6666 15.0203 21.6666 14.6667V1.33333C21.6666 0.979711 21.5261 0.640573 21.2761 0.390524C21.026 0.140476 20.6869 0 20.3333 0ZM19.3066 14.6667H2.77325L7.43992 9.84L6.47992 8.91333L1.66659 13.8933V2.34667L9.95325 10.5933C10.2031 10.8417 10.541 10.9811 10.8933 10.9811C11.2455 10.9811 11.5834 10.8417 11.8333 10.5933L20.3333 2.14V13.8067L15.4266 8.9L14.4866 9.84L19.3066 14.6667ZM2.53992 1.33333H19.2533L10.8933 9.64667L2.53992 1.33333Z" fill="#D09600"/>
    </symbol>

    <symbol width="40" height="40" viewBox="0 0 40 40" fill="none" id="time">
        <path d="M38.653 15.7789H27.5477C27.3568 15.7789 27.2007 15.9309 27.2007 16.1166V18.1433C27.2007 18.3291 27.3568 18.4811 27.5477 18.4811H38.653C38.8438 18.4811 39 18.3291 39 18.1433V16.1166C39 15.9309 38.8438 15.7789 38.653 15.7789ZM32.8401 21.521H27.5477C27.3568 21.521 27.2007 21.673 27.2007 21.8588V23.8855C27.2007 24.0712 27.3568 24.2232 27.5477 24.2232H32.8401C33.0309 24.2232 33.1871 24.0712 33.1871 23.8855V21.8588C33.1871 21.673 33.0309 21.521 32.8401 21.521ZM18.3642 12H16.4859C16.2169 12 16 12.2111 16 12.4729V22.9439C16 23.0959 16.0737 23.2352 16.1995 23.3239L22.6588 27.9092C22.8757 28.0612 23.1794 28.019 23.3355 27.8079L24.4504 26.3259V26.3217C24.6066 26.1106 24.5588 25.815 24.3419 25.663L18.8457 21.7955V12.4729C18.8501 12.2111 18.6288 12 18.3642 12Z" fill="#D09600"/>
        <path d="M32.6028 27.0382H30.1101C29.8686 27.0382 29.64 27.1643 29.5107 27.3731C28.963 28.247 28.3247 29.0558 27.5915 29.795C26.328 31.069 24.8574 32.0691 23.2229 32.7648C21.528 33.4866 19.7297 33.8519 17.8752 33.8519C16.0165 33.8519 14.2182 33.4866 12.5276 32.7648C10.8931 32.0691 9.42255 31.069 8.15895 29.795C6.89536 28.521 5.90346 27.0382 5.21344 25.3903C4.49755 23.6858 4.13529 21.8726 4.13529 19.9985C4.13529 18.1244 4.49755 16.3156 5.21344 14.6067C5.90346 12.9587 6.89536 11.476 8.15895 10.202C9.42255 8.92794 10.8931 7.92785 12.5276 7.23214C14.2182 6.51033 16.0208 6.14508 17.8752 6.14508C19.734 6.14508 21.5323 6.51033 23.2229 7.23214C24.8574 7.92785 26.328 8.92794 27.5915 10.202C28.3247 10.9412 28.963 11.7499 29.5107 12.6239C29.64 12.8326 29.8686 12.9587 30.1101 12.9587H32.6028C32.9004 12.9587 33.0901 12.6457 32.9564 12.3804C30.1446 6.74079 24.4433 3.07525 18.0779 3.00133C8.7584 2.88392 1.01728 10.5759 1.00003 19.9637C0.982779 29.3689 8.54277 37 17.8709 37C24.3183 37 30.1144 33.3214 32.9564 27.6166C33.0901 27.3513 32.896 27.0382 32.6028 27.0382Z" fill="#D09600"/>
    </symbol>
</svg>