<svg width="48" height="48" viewBox="0 0 48 48" fill="none" xmlns="http://www.w3.org/2000/svg">
<path d="M13.8256 1.60175C12.9059 1.2151 11.9063 1.05577 10.9143 1C10.6124 1.03293 10.3083 1.0239 10.0047 1.02656C8.74874 1.12375 7.5538 1.56563 6.42418 2.09728C8.17322 3.85101 9.94421 5.58403 11.6938 7.33723C11.7323 7.5534 11.553 7.72866 11.463 7.9103C11.2034 8.40849 10.9073 8.88702 10.6498 9.38573C10.1466 9.63908 9.66528 9.93437 9.16365 10.1914C8.98055 10.2807 8.80334 10.457 8.58545 10.4203C6.81927 8.6836 5.07023 6.92828 3.30352 5.19048C2.78421 6.31697 2.30613 7.4955 2.23118 8.74627C2.22101 8.97678 2.22583 9.20834 2.19317 9.43725C2.22261 10.4761 2.38536 11.5245 2.7992 12.4858C3.03155 13.0175 3.26551 13.5534 3.60118 14.0303C3.81854 14.3421 4.03804 14.6554 4.30144 14.9305C4.50488 15.1881 4.73188 15.4314 4.99582 15.629C5.97286 16.5393 7.18921 17.1904 8.48052 17.5399C8.82369 17.6679 9.19149 17.6918 9.54965 17.7555C10.3249 17.883 11.1177 17.8639 11.8935 17.7497C12.2158 17.7215 12.5231 17.6116 12.8432 17.5712C13.0622 17.5457 13.1457 17.798 13.2822 17.9207C13.5761 18.1576 13.8454 18.4258 14.0853 18.7168C14.3224 18.9043 14.5334 19.1216 14.7454 19.3361C14.8289 19.4195 14.884 19.5326 14.8749 19.6521C14.6372 19.7281 14.4193 19.8556 14.1929 19.9591C13.8112 20.2045 13.3738 20.3394 12.9781 20.5598C12.6617 20.7383 12.2838 20.836 12.0423 21.1228C8.59937 24.5405 5.15482 27.9571 1.71027 31.3733C1.3489 31.6988 1.0962 32.1535 1.03999 32.6368C0.915782 33.2582 1.10316 33.887 1.2975 34.4744C1.71508 35.4952 2.30399 36.4454 3.01656 37.2904C3.16218 37.4975 3.36402 37.6574 3.51071 37.8635C3.66329 38.0477 3.84531 38.205 4.01181 38.376C4.23988 38.5943 4.44653 38.8359 4.7035 39.0213C5.28063 39.5391 5.90648 40.0017 6.56069 40.4186C7.11105 40.7246 7.65926 41.0459 8.26691 41.2286C8.9843 41.4989 9.81465 41.5563 10.5283 41.2429C10.8185 41.1234 11.0385 40.8982 11.2794 40.7081C11.424 40.5859 11.5128 40.4101 11.6686 40.3013C11.9427 40.0952 12.1612 39.8291 12.3866 39.5752C12.6773 39.3527 12.9348 39.0893 13.1602 38.8025C13.43 38.5937 13.6784 38.3579 13.8925 38.0924C14.0034 37.9362 14.1902 37.8587 14.3032 37.7047C14.4643 37.4784 14.679 37.2994 14.8717 37.1013C17.0309 34.9588 19.1905 32.8168 21.3497 30.6748C21.5071 30.5097 21.7019 30.3684 21.7951 30.1544C22.0542 29.6158 22.3481 29.0937 22.5805 28.543C22.7464 28.2535 22.8706 27.9444 23.0313 27.6523C23.0918 27.6698 23.1603 27.6762 23.2042 27.7266C23.3883 27.8993 23.5623 28.0814 23.7219 28.2769C24.0153 28.5148 24.2851 28.782 24.5249 29.0735C24.8183 29.3115 25.0881 29.5792 25.328 29.8702C25.677 30.1427 25.9661 30.4783 26.2643 30.8023C26.3018 30.9569 26.2477 31.1146 26.2183 31.2665C26.0416 31.9878 25.9677 32.7372 26.0266 33.4781C26.0727 34.202 26.1846 34.9306 26.433 35.6163C26.6043 36.114 26.7794 36.6159 27.0669 37.062C27.2976 37.5219 27.607 37.9367 27.9229 38.3425C28.2356 38.6702 28.5022 39.0462 28.8726 39.3171C29.2699 39.656 29.68 39.9837 30.1366 40.2407C30.453 40.4611 30.8075 40.6173 31.1635 40.7633C32.0479 41.1563 33.0062 41.3831 33.9736 41.4368C34.4415 41.5064 34.9116 41.4325 35.38 41.4134C36.2372 41.3194 37.0804 41.0958 37.87 40.7522C38.1768 40.647 38.46 40.484 38.7694 40.3884C38.3626 39.9417 37.9145 39.5333 37.491 39.1015C36.1884 37.8098 34.8875 36.5166 33.5833 35.2265C33.4902 35.1463 33.4945 35.0018 33.5378 34.8977C33.8708 34.3071 34.1888 33.7075 34.5224 33.118C34.5877 33.0372 34.691 33.0032 34.7777 32.9523C35.2799 32.6681 35.7982 32.4126 36.2987 32.1253C36.4004 32.0733 36.5487 31.9516 36.643 32.0807C38.0692 33.4988 39.4986 34.9142 40.9259 36.3312C41.2546 36.6456 41.5603 36.985 41.9051 37.2829C42.1524 36.6509 42.4458 36.0354 42.6514 35.3874C42.7959 34.8542 42.9207 34.3119 42.9523 33.7595C43.0834 32.7478 42.9303 31.719 42.6637 30.7402C42.1117 28.8632 40.897 27.1785 39.2593 26.086C38.0312 25.2479 36.5739 24.7423 35.0861 24.6441C34.3473 24.5639 33.6021 24.652 32.8756 24.788C32.6775 24.8331 32.4789 24.8772 32.2754 24.8958C30.4873 23.1277 28.7061 21.3522 26.9175 19.5847C26.8618 19.5268 26.7895 19.4641 26.8168 19.3749C26.8961 19.2596 27.0069 19.1704 27.1043 19.0706C29.0327 17.1596 30.9574 15.2444 32.8879 13.3351C33.0897 13.1816 33.238 12.975 33.4217 12.8024C33.8853 12.3584 34.3264 11.8931 34.7933 11.4528C35.0245 11.2048 35.2665 10.9669 35.5203 10.7417C35.9159 10.3024 36.3603 9.91047 36.7682 9.48293C37.143 9.11168 37.537 8.75902 37.9182 8.39362C38.2121 8.08557 38.4953 7.75894 38.8444 7.51038C39.4654 7.15612 40.0698 6.77479 40.6871 6.41469C40.7701 6.37114 40.7637 6.26173 40.7888 6.18419C40.8718 5.56066 41.0196 4.94776 41.1074 4.32476C41.208 3.78515 41.2899 3.24236 41.4029 2.7054C41.4977 2.2428 41.518 1.76427 41.6647 1.31389C41.4484 1.41427 41.2059 1.39302 40.9762 1.43498C40.5206 1.49128 40.0698 1.58157 39.6121 1.62193C38.9681 1.69576 38.3299 1.81207 37.6853 1.88112C37.2592 1.93316 36.8368 2.01655 36.4085 2.0516C36.1815 2.49296 35.8843 2.89395 35.6482 3.32999C35.4726 3.61467 35.3008 3.902 35.1129 4.17871C34.6589 4.64715 34.1851 5.09806 33.7263 5.56226C33.5625 5.73805 33.3531 5.86446 33.2091 6.05885C32.904 6.3021 32.6341 6.58571 32.3809 6.88048C31.9869 7.16197 31.724 7.57783 31.345 7.87313C31.1528 8.05477 30.967 8.24384 30.8005 8.44991C30.506 8.68626 30.2368 8.95394 29.998 9.24658C29.6131 9.53551 29.3261 9.92641 28.9599 10.2355C27.0958 12.0848 25.2305 13.9337 23.3675 15.7846C23.3086 15.8637 23.1849 15.8988 23.1164 15.8095C21.74 14.4504 20.371 13.0828 18.9935 11.7242C18.9571 11.6748 18.8763 11.6297 18.8998 11.558C18.9775 11.1692 19.0872 10.7842 19.1215 10.3879C19.2981 8.99643 19.084 7.56455 18.5593 6.26545C18.2986 5.72212 18.0475 5.16976 17.6862 4.68326C17.4779 4.33273 17.184 4.04752 16.9313 3.73151C16.7038 3.4957 16.4762 3.25882 16.2123 3.06231C15.8167 2.65866 15.3113 2.38939 14.8391 2.08559C14.5205 1.88643 14.1634 1.76374 13.8256 1.60175ZM15.2203 4.04646C15.3803 4.20898 15.5618 4.3476 15.7267 4.50428C15.9526 4.77462 16.2085 5.01999 16.4045 5.31423C16.7386 5.71787 16.9393 6.20331 17.1786 6.66325C17.9014 8.34157 17.9239 10.3003 17.2472 11.9967C22.1238 16.8447 27.0085 21.6858 31.8916 26.5269C32.118 26.4573 32.3429 26.384 32.5688 26.3128C33.8237 25.9803 35.1723 25.958 36.4251 26.3133C37.3844 26.5757 38.2801 27.0516 39.0452 27.6799C39.1902 27.8371 39.3626 27.9651 39.5216 28.1074C39.6871 28.331 39.906 28.5084 40.0672 28.7358C40.799 29.6673 41.2825 30.7869 41.4672 31.9532C41.5475 32.3563 41.526 32.7696 41.5539 33.1774C41.548 33.6985 41.4548 34.2121 41.3467 34.7203C41.2921 34.6964 41.2332 34.6778 41.1904 34.6359C39.7208 33.179 38.255 31.718 36.7816 30.2654C36.0284 30.6621 35.2762 31.061 34.5358 31.4816C34.1985 31.6861 33.8194 31.8226 33.5025 32.0595C33.3467 32.2852 33.2284 32.5359 33.0962 32.7759C32.6218 33.6156 32.1582 34.4617 31.6994 35.3099C33.1615 36.7731 34.6369 38.2235 36.1022 39.6841C36.1424 39.7266 36.1622 39.7824 36.189 39.8344C35.6927 39.9337 35.1937 40.032 34.6846 40.0155C33.0667 40.0824 31.4381 39.5481 30.1634 38.5613C29.8406 38.3383 29.5868 38.0371 29.3042 37.7689C28.1467 36.5341 27.4732 34.8637 27.4587 33.1764C27.4486 32.9448 27.4807 32.7138 27.4791 32.4828C27.5005 31.7881 27.7307 31.1247 27.9213 30.464C27.4293 29.9345 26.8955 29.4411 26.3875 28.9254C22.0183 24.5941 17.6562 20.256 13.2822 15.9296C12.4931 16.2302 11.6504 16.3863 10.8067 16.4187C10.3607 16.3863 9.90888 16.3964 9.46934 16.3029C8.57153 16.1516 7.70263 15.8281 6.9317 15.3464C6.5639 15.0793 6.16666 14.8419 5.85561 14.5062C5.68002 14.3277 5.49371 14.1588 5.32721 13.9719C4.85876 13.3882 4.42244 12.7657 4.15689 12.0625C3.93419 11.4735 3.74306 10.8644 3.69434 10.2345C3.5969 9.41707 3.6574 8.58853 3.82764 7.78496C3.90581 7.78815 3.98558 7.80408 4.03537 7.86941C4.81915 8.64908 5.60453 9.42716 6.38937 10.2058C7.05858 10.8803 7.75028 11.5341 8.40503 12.2235C8.78354 11.9622 9.21236 11.7837 9.60479 11.5452C10.2547 11.2234 10.8758 10.8489 11.5241 10.5244C11.7136 10.4586 11.7778 10.2647 11.8683 10.1075C12.4347 9.1308 12.9417 8.12116 13.5156 7.14922C13.3599 6.95908 13.1671 6.8024 12.9979 6.62395C11.6831 5.32697 10.3832 4.01406 9.05872 2.72771C9.05229 2.69956 9.04051 2.64273 9.03409 2.61458C9.46238 2.54713 9.88853 2.44463 10.3243 2.44463C10.5577 2.44516 10.7906 2.44409 11.0235 2.44463C12.5498 2.49721 14.0467 3.07931 15.2203 4.04646ZM39.8648 3.01557C39.86 3.35708 39.7625 3.6869 39.7095 4.02256C39.6496 4.41558 39.5612 4.8033 39.5024 5.19632C39.467 5.32272 39.5029 5.5033 39.3658 5.57553C39.0623 5.75027 38.7566 5.92182 38.4611 6.10983C38.1918 6.28669 37.8781 6.40619 37.6559 6.64626C33.7713 10.5112 29.8743 14.3639 25.9876 18.2266C25.9078 18.2882 25.8377 18.4322 25.7177 18.3849C25.3483 18.0253 24.9859 17.6578 24.6186 17.2961C24.4896 17.1639 24.3418 17.0465 24.2417 16.8893C24.3895 16.7464 24.511 16.577 24.6775 16.4538C24.8611 16.3162 25.0309 16.159 25.17 15.9774C25.381 15.6741 25.7343 15.5121 25.949 15.211C26.1701 14.8822 26.5502 14.7096 26.7767 14.3846C26.9175 14.1716 27.1375 14.0367 27.3222 13.8667C30.2951 10.9212 33.2637 7.97138 36.2366 5.02583C36.3689 4.89783 36.4293 4.71991 36.5305 4.56961C36.7441 4.24616 36.9358 3.90837 37.1382 3.57802C37.1939 3.49942 37.2442 3.39903 37.3448 3.37142C38.1832 3.24501 39.0275 3.15313 39.8648 3.01557ZM16.0817 20.6618C16.2407 20.7892 16.3643 20.9518 16.4966 21.1047C16.7905 21.3427 17.0603 21.6098 17.3002 21.9009C17.593 22.1399 17.8628 22.407 18.1032 22.6975C18.396 22.936 18.6659 23.2037 18.9063 23.4942C19.1991 23.7327 19.4689 24.0004 19.7088 24.2909C20.0021 24.5293 20.272 24.797 20.5124 25.0875C20.7479 25.2761 20.9621 25.4896 21.1676 25.71C21.3315 25.9368 21.5783 26.0813 21.7624 26.2905C21.8465 26.3941 22.0167 26.4727 21.9814 26.6294C21.7839 26.9905 21.5906 27.3554 21.4327 27.7357C21.1505 28.304 20.8614 28.8691 20.5787 29.4379C20.4995 29.6116 20.34 29.7273 20.2104 29.8628C16.8638 33.1822 13.5173 36.5011 10.1723 39.8222C10.0181 39.9741 9.79002 40.0214 9.57909 40.0224C8.84403 40.0686 8.15769 39.7356 7.52864 39.3968C7.00505 39.0808 6.50822 38.7207 6.03764 38.3308C5.90219 38.1981 5.76781 38.0637 5.61149 37.9548C5.36736 37.7386 5.14893 37.4954 4.91176 37.2713C4.57823 36.9627 4.32018 36.5867 4.0086 36.2579C3.67025 35.8102 3.32065 35.3667 3.05297 34.8717C2.72907 34.3385 2.46674 33.7484 2.41428 33.1211C2.38376 32.8004 2.52135 32.4721 2.76922 32.265C6.11741 28.9477 9.46292 25.6277 12.8074 22.3066C13.036 22.0289 13.3979 21.9349 13.7025 21.7654C14.005 21.5971 14.3369 21.4893 14.6313 21.3066C14.9547 21.1201 15.323 21.024 15.6325 20.8121C15.7722 20.7436 15.9157 20.6204 16.0817 20.6618Z" fill="#D09600" stroke="#D09600" stroke-width="0.7"/>
<path d="M15.5595 27.0326C15.4107 26.8132 15.1644 26.6916 14.9927 26.493C11.6583 29.7944 8.32677 33.0984 5 36.4067C5.31533 36.7259 5.6312 37.0451 5.95563 37.3548C5.97115 37.3484 6.00167 37.3362 6.0172 37.3303C9.29525 34.0847 12.5658 30.8306 15.8449 27.5855C15.8791 27.5382 15.9509 27.5047 15.9499 27.441C15.8261 27.2987 15.6741 27.1829 15.5595 27.0326Z" fill="#D09600" stroke="#D09600" stroke-width="0.7"/>
</svg>
