<svg width="40" height="40" viewBox="0 0 40 40" fill="none" xmlns="http://www.w3.org/2000/svg">
    <path d="M19.8773 3.95342C20.0975 3.69126 20.3701 3.47326 20.6794 3.31203C20.9887 3.15081 21.3285 3.04956 21.6792 3.01416C22.0299 2.97876 22.3844 3.0099 22.7224 3.10578C23.0603 3.20167 23.3749 3.36039 23.648 3.57276L32.3467 10.3333C32.825 10.705 33.153 11.2232 33.2746 11.7994C33.3962 12.3756 33.3038 12.9742 33.0133 13.4928C32.2528 13.2716 31.4619 13.1595 30.6667 13.1603H29.8667L30.6613 12.2975L26.08 8.73706L22.3013 13.1629H18.864L24.0133 7.13321L21.96 5.53697L15.5653 13.1603H12.152L19.8773 3.95342ZM26.6667 25.849C26.313 25.849 25.9739 25.9827 25.7239 26.2207C25.4738 26.4586 25.3333 26.7814 25.3333 27.1179C25.3333 27.4544 25.4738 27.7772 25.7239 28.0151C25.9739 28.2531 26.313 28.3868 26.6667 28.3868H29.3333C29.687 28.3868 30.0261 28.2531 30.2761 28.0151C30.5262 27.7772 30.6667 27.4544 30.6667 27.1179C30.6667 26.7814 30.5262 26.4586 30.2761 26.2207C30.0261 25.9827 29.687 25.849 29.3333 25.849H26.6667ZM6.66667 14.4292C6.66667 14.0927 6.80714 13.7699 7.05719 13.532C7.30724 13.294 7.64638 13.1603 8 13.1603H9.488L11.608 10.6226H8C6.93913 10.6226 5.92172 11.0237 5.17157 11.7375C4.42143 12.4514 4 13.4196 4 14.4292V29.6557C4 31.3383 4.70238 32.952 5.95262 34.1418C7.20286 35.3316 8.89856 36 10.6667 36H30.6667C32.0812 36 33.4377 35.4653 34.4379 34.5134C35.4381 33.5616 36 32.2706 36 30.9245V20.7736C36 19.4275 35.4381 18.1365 34.4379 17.1847C33.4377 16.2328 32.0812 15.6981 30.6667 15.6981H8C7.64638 15.6981 7.30724 15.5644 7.05719 15.3264C6.80714 15.0885 6.66667 14.7657 6.66667 14.4292ZM6.66667 29.6557V18.0201C7.08267 18.1597 7.53333 18.2358 8 18.2358H30.6667C31.3739 18.2358 32.0522 18.5032 32.5523 18.9791C33.0524 19.455 33.3333 20.1005 33.3333 20.7736V30.9245C33.3333 31.5976 33.0524 32.2431 32.5523 32.719C32.0522 33.1949 31.3739 33.4623 30.6667 33.4623H10.6667C9.6058 33.4623 8.58839 33.0612 7.83824 32.3473C7.08809 31.6335 6.66667 30.6652 6.66667 29.6557Z" fill="#D09600"/>
</svg>