<svg width="48" height="48" viewBox="0 0 38 48" fill="none" xmlns="http://www.w3.org/2000/svg">
<path d="M25.6667 30.4167C28.4167 28.4167 30.0833 25.25 30.0833 21.9167C30.0833 20.4167 30 19.1667 29.8333 18.0833H31.8333C32.3333 18.0833 32.75 17.6667 32.75 17.1667V13.1667C32.75 12.6667 32.3333 12.25 31.8333 12.25H30.25C29.4167 8.08333 26.3333 4.66667 22.25 3.5V1.91667C22.25 1.41667 21.8333 1 21.3333 1H16.75C16.25 1 15.8333 1.41667 15.8333 1.91667V3.5C11.75 4.66667 8.66667 8.08333 7.83333 12.25H6.25C5.75 12.25 5.33333 12.6667 5.33333 13.1667V17.1667C5.33333 17.6667 5.75 18.0833 6.25 18.0833H8.16667C8 19.1667 7.91667 20.5 7.91667 21.9167C7.91667 25.25 9.58333 28.4167 12.3333 30.4167C5.58333 33 1 39.1667 1 46.0833C1 46.5833 1.41667 47 1.91667 47H36C36.5 47 36.9167 46.5833 36.9167 46.0833C36.9167 39.1667 32.3333 33 25.6667 30.4167ZM7.08333 16.25V14.1667H8.58333C8.83333 14.1667 9 14.0833 9.16667 13.9167C9.25 13.8333 9.41667 13.5833 9.5 13.3333C9.91667 9.75 12.4167 6.75 15.75 5.5V11.3333C15.75 11.8333 16.1667 12.25 16.6667 12.25C17.1667 12.25 17.5833 11.8333 17.5833 11.3333V2.83333H20.3333V11.25C20.3333 11.75 20.75 12.1667 21.25 12.1667C21.75 12.1667 22.1667 11.75 22.1667 11.25V5.5C25.5 6.75 28 9.75 28.4167 13.3333C28.4167 13.5833 28.5833 13.8333 28.75 13.9167C29.0833 14.1667 29.25 14.1667 29.4167 14.1667H30.9167V16.25H28.75H19H9.25H7.08333ZM2.91667 45.0833C3.41667 38.75 8.16667 33.25 14.8333 31.5833C15.25 31.5 15.5 31.1667 15.5833 30.75C15.5833 30.3333 15.4167 30 15 29.8333C11.8333 28.3333 9.83333 25.3333 9.83333 21.9167C9.83333 20.4167 9.91667 19.1667 10.0833 18.0833H19H27.9167C28.0833 19.1667 28.1667 20.4167 28.1667 21.9167C28.1667 25.3333 26.1667 28.3333 23 29.8333C22.6667 30 22.4167 30.4167 22.4167 30.75C22.4167 31.1667 22.75 31.5 23.1667 31.5833C29.8333 33.25 34.6667 38.75 35.0833 45.0833H2.91667Z" fill="#D09600" stroke="#D09600" stroke-width="0.4"/>
</svg>
